<svg width="18" height="18" viewBox="0 0 18 18" fill="none" xmlns="http://www.w3.org/2000/svg">
<g filter="url(#filter0_d_297083_8313)">
<path d="M15 0H3C2.175 0 1.5075 0.675 1.5075 1.5L1.5 10.5C1.5 11.325 2.175 12 3 12H15C15.825 12 16.5 11.325 16.5 10.5V1.5C16.5 0.675 15.825 0 15 0ZM14.7 3.1875L9.3975 6.5025C9.1575 6.6525 8.8425 6.6525 8.6025 6.5025L3.3 3.1875C3.1125 3.0675 3 2.865 3 2.6475C3 2.145 3.5475 1.845 3.975 2.1075L9 5.25L14.025 2.1075C14.4525 1.845 15 2.145 15 2.6475C15 2.865 14.8875 3.0675 14.7 3.1875Z" fill="#2E2F42"/>
</g>
<defs>
<filter id="filter0_d_297083_8313" x="-2.5" y="0" width="23" height="20" filterUnits="userSpaceOnUse" color-interpolation-filters="sRGB">
<feFlood flood-opacity="0" result="BackgroundImageFix"/>
<feColorMatrix in="SourceAlpha" type="matrix" values="0 0 0 0 0 0 0 0 0 0 0 0 0 0 0 0 0 0 127 0" result="hardAlpha"/>
<feOffset dy="4"/>
<feGaussianBlur stdDeviation="2"/>
<feComposite in2="hardAlpha" operator="out"/>
<feColorMatrix type="matrix" values="0 0 0 0 0 0 0 0 0 0 0 0 0 0 0 0 0 0 0.25 0"/>
<feBlend mode="normal" in2="BackgroundImageFix" result="effect1_dropShadow_297083_8313"/>
<feBlend mode="normal" in="SourceGraphic" in2="effect1_dropShadow_297083_8313" result="shape"/>
</filter>
</defs>
</svg>
